<?xml version="1.0" encoding="utf-8"?><svg xmlns="http://www.w3.org/2000/svg" xmlns:xlink="http://www.w3.org/1999/xlink" width="1440" height="789" preserveAspectRatio="xMidYMid" viewBox="0 0 1440 789" style="z-index:1;margin-right:-2px;display:block;background-repeat-y:initial;background-repeat-x:initial;background-color:rgb(241, 242, 243);animation-play-state:paused" ><g transform="translate(720,394.5) scale(1,1) translate(-720,-394.5)" style="transform:matrix(1, 0, 0, 1, 0, 0);animation-play-state:paused" ><linearGradient id="lg-0.7814988283477564" x1="0" x2="1" y1="0" y2="0" style="animation-play-state:paused" ><stop stop-color="#ffb6bb" offset="0" style="animation-play-state:paused" ></stop>

  
<stop stop-color="#9491ff" offset="1" style="animation-play-state:paused" ></stop></linearGradient>
<path d="M 1354.4 395 C 1354.4 561.8 1025.4 794.6 866.8 846.4 C 708.2 898.2 404.6 829.6 306.8 694.8 C 209 560 128.8 170.4 226.6 35.6 C 324.4 -99.2 700.8 -87.2 859.6 -35.4 C 1018.4 16.4 1354.4 228.2 1354.4 395" fill="url(#lg-0.7814988283477564)" opacity="0.4" style="opacity:0.4;animation-play-state:paused" ></path>
<path d="M 1395.6 395 C 1395.6 575.6 1037 784.2 864.4 839.8 C 691.8 895.4 304 920.4 197.8 773.6 C 91.6 626.8 186.2 230.8 292.4 84 C 398.6 -62.8 713 -172 885.6 -116.4 C 1058.2 -60.8 1395.6 214.4 1395.6 395" fill="url(#lg-0.7814988283477564)" opacity="0.4" style="opacity:0.4;animation-play-state:paused" ></path>
<path d="M 1262 395 C 1262 561.2 1000 716.8 841.8 768.2 C 683.6 819.6 409.6 825.4 312 690.6 C 214.4 555.8 132 173.2 229.6 38.4 C 327.2 -96.4 697.6 -74.8 855.8 -23.4 C 1014 28 1262 228.8 1262 395" fill="url(#lg-0.7814988283477564)" opacity="0.4" style="opacity:0.4;animation-play-state:paused" ></path>
<path d="M 1319 395 C 1319 571.4 1025.6 762.8 857.4 817.6 C 689.2 872.4 387.2 854.6 283.6 711.6 C 180 568.6 151.4 200.2 255 57.2 C 358.6 -85.8 699.4 -113.6 867.6 -58.8 C 1035.8 -4 1319 218.6 1319 395" fill="url(#lg-0.7814988283477564)" opacity="0.4" style="opacity:0.4;animation-play-state:paused" ></path>
<path d="M 1368.4 395 C 1368.4 576.4 1041.6 797.8 869 853.8 C 696.4 909.8 371.6 872.6 264.8 725.4 C 158 578.2 165.6 216.2 272.4 69.2 C 379.2 -77.8 697.8 -124.4 870.4 -68.4 C 1043 -12.4 1368.4 213.6 1368.4 395" fill="url(#lg-0.7814988283477564)" opacity="0.4" style="opacity:0.4;animation-play-state:paused" ></path></g></svg>