<?xml version="1.0" encoding="utf-8"?><svg xmlns="http://www.w3.org/2000/svg" xmlns:xlink="http://www.w3.org/1999/xlink" width="1440" height="789" preserveAspectRatio="xMidYMid" viewBox="0 0 1440 789" style="z-index:1;margin-right:-2px;display:block;background-repeat-y:initial;background-repeat-x:initial;background-color:rgb(241, 242, 243);animation-play-state:paused" ><g transform="translate(720,394.5) scale(1,1) translate(-720,-394.5)" style="transform:matrix(1, 0, 0, 1, 0, 0);animation-play-state:paused" ><linearGradient id="lg-0.5308797653246657" x1="0" x2="1" y1="0" y2="0" style="animation-play-state:paused" ><stop stop-color="#f4d6ff" offset="0" style="animation-play-state:paused" ></stop>

  
<stop stop-color="#4071f0" offset="1" style="animation-play-state:paused" ></stop></linearGradient>
<path d="M 0 0 M 0 739.097 Q 144 684.739 288 678.004 T 576 655.629 T 864 587.68 T 1152 632.436 T 1440 532.151 L 1440 211.055 Q 1296 224.717 1152 221.521 T 864 185.341 T 576 160.704 T 288 123.183 T 0 111.158 Z" fill="url(#lg-0.5308797653246657)" opacity="0.32" style="opacity:0.32;animation-play-state:paused" ></path>
<path d="M 0 0 M 0 727.037 Q 144 728.083 288 720.157 T 576 637.526 T 864 593.905 T 1152 605.864 T 1440 555.178 L 1440 242.979 Q 1296 172.598 1152 169.385 T 864 131.028 T 576 132.762 T 288 81.0247 T 0 70.3539 Z" fill="url(#lg-0.5308797653246657)" opacity="0.32" style="opacity:0.32;animation-play-state:paused" ></path>
<path d="M 0 0 M 0 682.069 Q 144 659.722 288 651.122 T 576 664.388 T 864 641.526 T 1152 608.718 T 1440 575.132 L 1440 220.648 Q 1296 181.718 1152 179.606 T 864 172.043 T 576 143.237 T 288 92.0938 T 0 94.0082 Z" fill="url(#lg-0.5308797653246657)" opacity="0.32" style="opacity:0.32;animation-play-state:paused" ></path>
<path d="M 0 0 M 0 680.083 Q 144 720.911 288 718.417 T 576 612.789 T 864 643.543 T 1152 591.229 T 1440 579.778 L 1440 188.423 Q 1296 236.637 1152 229.387 T 864 175.319 T 576 102.736 T 288 107.746 T 0 113.479 Z" fill="url(#lg-0.5308797653246657)" opacity="0.32" style="opacity:0.32;animation-play-state:paused" ></path></g></svg>